<mxfile host="app.diagrams.net" agent="Mozilla/5.0 (Windows NT 10.0; Win64; x64) AppleWebKit/537.36 (KHTML, like Gecko) Chrome/137.0.0.0 Safari/537.36" version="27.1.6">
  <diagram name="Page-1" id="Z9d0btoDrWQVMTwrHOr2">
    <mxGraphModel dx="1123" dy="644" grid="1" gridSize="10" guides="1" tooltips="1" connect="1" arrows="1" fold="1" page="1" pageScale="1" pageWidth="827" pageHeight="1169" math="0" shadow="0">
      <root>
        <mxCell id="0" />
        <mxCell id="1" parent="0" />
        <mxCell id="R8wTn0Ck141vZ3SgnGcV-1" value="" style="rounded=0;html=1;jettySize=auto;orthogonalLoop=1;fontSize=11;endArrow=open;endFill=0;endSize=8;strokeWidth=1;shadow=0;labelBackgroundColor=none;edgeStyle=orthogonalEdgeStyle;strokeColor=light-dark(#000000,#000000);" edge="1" parent="1" source="R8wTn0Ck141vZ3SgnGcV-10" target="R8wTn0Ck141vZ3SgnGcV-4">
          <mxGeometry relative="1" as="geometry" />
        </mxCell>
        <mxCell id="R8wTn0Ck141vZ3SgnGcV-2" value="&lt;font style=&quot;color: light-dark(rgb(0, 0, 0), rgb(0, 0, 0));&quot;&gt;Log in&lt;/font&gt;" style="rounded=1;whiteSpace=wrap;html=1;fontSize=12;glass=0;strokeWidth=1;shadow=0;fillColor=light-dark(#F59E0B,#F59E0B);strokeColor=light-dark(#000000,#000000);" vertex="1" parent="1">
          <mxGeometry x="350" y="213" width="120" height="40" as="geometry" />
        </mxCell>
        <mxCell id="R8wTn0Ck141vZ3SgnGcV-3" value="&lt;font style=&quot;color: light-dark(rgb(0, 0, 0), rgb(0, 0, 0)); font-size: 12px;&quot;&gt;Invalid&lt;/font&gt;" style="edgeStyle=orthogonalEdgeStyle;rounded=0;html=1;jettySize=auto;orthogonalLoop=1;fontSize=11;endArrow=open;endFill=0;endSize=8;strokeWidth=1;shadow=0;labelBackgroundColor=none;strokeColor=light-dark(#000000,#000000);entryX=1;entryY=0.5;entryDx=0;entryDy=0;" edge="1" parent="1" source="R8wTn0Ck141vZ3SgnGcV-4" target="R8wTn0Ck141vZ3SgnGcV-10">
          <mxGeometry x="0.0651" y="30" relative="1" as="geometry">
            <mxPoint as="offset" />
            <mxPoint x="600.090909090909" y="323" as="targetPoint" />
            <Array as="points">
              <mxPoint x="600" y="418" />
              <mxPoint x="600" y="313" />
            </Array>
          </mxGeometry>
        </mxCell>
        <mxCell id="R8wTn0Ck141vZ3SgnGcV-4" value="&lt;font style=&quot;color: light-dark(rgb(0, 0, 0), rgb(0, 0, 0));&quot;&gt;Check&lt;/font&gt;" style="rhombus;whiteSpace=wrap;html=1;shadow=0;fontFamily=Helvetica;fontSize=12;align=center;strokeWidth=1;spacing=6;spacingTop=-4;fillColor=light-dark(#F59E0B,#F59E0B);strokeColor=light-dark(#000000,#000000);" vertex="1" parent="1">
          <mxGeometry x="370" y="383" width="80" height="70" as="geometry" />
        </mxCell>
        <mxCell id="R8wTn0Ck141vZ3SgnGcV-5" value="&lt;font style=&quot;color: light-dark(rgb(0, 0, 0), rgb(0, 0, 0));&quot;&gt;Log out&lt;/font&gt;" style="rounded=1;whiteSpace=wrap;html=1;fontSize=12;glass=0;strokeWidth=1;shadow=0;strokeColor=light-dark(#000000,#000000);fillColor=light-dark(#F59E0B,#F59E0B);" vertex="1" parent="1">
          <mxGeometry x="350" y="863" width="120" height="40" as="geometry" />
        </mxCell>
        <mxCell id="R8wTn0Ck141vZ3SgnGcV-6" value="" style="ellipse;html=1;shape=endState;fillColor=light-dark(#F59E0B,#F59E0B);strokeColor=light-dark(#000000,#000000);" vertex="1" parent="1">
          <mxGeometry x="395" y="153" width="30" height="30" as="geometry" />
        </mxCell>
        <mxCell id="R8wTn0Ck141vZ3SgnGcV-7" value="" style="endArrow=none;html=1;rounded=0;strokeColor=light-dark(#000000,#000000);entryX=0.5;entryY=1;entryDx=0;entryDy=0;exitX=0.5;exitY=0;exitDx=0;exitDy=0;" edge="1" parent="1" source="R8wTn0Ck141vZ3SgnGcV-2" target="R8wTn0Ck141vZ3SgnGcV-6">
          <mxGeometry width="50" height="50" relative="1" as="geometry">
            <mxPoint x="385" y="213" as="sourcePoint" />
            <mxPoint x="435" y="163" as="targetPoint" />
          </mxGeometry>
        </mxCell>
        <mxCell id="R8wTn0Ck141vZ3SgnGcV-8" value="" style="ellipse;html=1;shape=endState;fillColor=light-dark(#F59E0B,#F59E0B);strokeColor=light-dark(#000000,#000000);" vertex="1" parent="1">
          <mxGeometry x="395" y="933" width="30" height="30" as="geometry" />
        </mxCell>
        <mxCell id="R8wTn0Ck141vZ3SgnGcV-9" value="" style="rounded=0;html=1;jettySize=auto;orthogonalLoop=1;fontSize=11;endArrow=open;endFill=0;endSize=8;strokeWidth=1;shadow=0;labelBackgroundColor=none;edgeStyle=orthogonalEdgeStyle;strokeColor=light-dark(#000000,#000000);" edge="1" parent="1" source="R8wTn0Ck141vZ3SgnGcV-2" target="R8wTn0Ck141vZ3SgnGcV-10">
          <mxGeometry relative="1" as="geometry">
            <mxPoint x="410" y="253" as="sourcePoint" />
            <mxPoint x="410" y="513" as="targetPoint" />
          </mxGeometry>
        </mxCell>
        <mxCell id="R8wTn0Ck141vZ3SgnGcV-10" value="&lt;font style=&quot;color: light-dark(rgb(0, 0, 0), rgb(0, 0, 0));&quot;&gt;Authentication&lt;/font&gt;" style="rounded=1;whiteSpace=wrap;html=1;fontSize=12;glass=0;strokeWidth=1;shadow=0;fillColor=light-dark(#F59E0B,#F59E0B);strokeColor=light-dark(#000000,#000000);" vertex="1" parent="1">
          <mxGeometry x="350" y="293" width="120" height="40" as="geometry" />
        </mxCell>
        <mxCell id="R8wTn0Ck141vZ3SgnGcV-11" value="" style="html=1;points=[[0,0,0,0,5],[0,1,0,0,-5],[1,0,0,0,5],[1,1,0,0,-5]];perimeter=orthogonalPerimeter;outlineConnect=0;targetShapes=umlLifeline;portConstraint=eastwest;newEdgeStyle={&quot;curved&quot;:0,&quot;rounded&quot;:0};rotation=-90;strokeColor=light-dark(#000000,#000000);fillColor=light-dark(#F59E0B,#F59E0B);" vertex="1" parent="1">
          <mxGeometry x="405" y="293" width="10" height="410" as="geometry" />
        </mxCell>
        <mxCell id="R8wTn0Ck141vZ3SgnGcV-12" value="&lt;font style=&quot;color: light-dark(rgb(0, 0, 0), rgb(0, 0, 0));&quot;&gt;Manage products&lt;/font&gt;" style="rounded=1;whiteSpace=wrap;html=1;fontSize=12;glass=0;strokeWidth=1;shadow=0;fillColor=light-dark(#F59E0B,#F59E0B);strokeColor=light-dark(#000000,#000000);" vertex="1" parent="1">
          <mxGeometry x="180" y="600" width="120" height="40" as="geometry" />
        </mxCell>
        <mxCell id="R8wTn0Ck141vZ3SgnGcV-13" value="" style="endArrow=open;endFill=1;endSize=12;html=1;rounded=0;strokeColor=light-dark(#000000,#000000);entryX=0.5;entryY=0;entryDx=0;entryDy=0;exitX=0.034;exitY=0.378;exitDx=0;exitDy=0;exitPerimeter=0;" edge="1" parent="1" target="R8wTn0Ck141vZ3SgnGcV-12">
          <mxGeometry width="160" relative="1" as="geometry">
            <mxPoint x="299.98000000000013" y="502.6600000000001" as="sourcePoint" />
            <mxPoint x="300" y="623" as="targetPoint" />
          </mxGeometry>
        </mxCell>
        <mxCell id="R8wTn0Ck141vZ3SgnGcV-14" value="" style="endArrow=open;endFill=1;endSize=12;html=1;rounded=0;strokeColor=light-dark(#000000,#000000);exitX=0.25;exitY=1;exitDx=0;exitDy=0;entryX=0.5;entryY=0;entryDx=0;entryDy=0;" edge="1" parent="1" source="R8wTn0Ck141vZ3SgnGcV-12" target="R8wTn0Ck141vZ3SgnGcV-15">
          <mxGeometry width="160" relative="1" as="geometry">
            <mxPoint x="235" y="640" as="sourcePoint" />
            <mxPoint x="265" y="700" as="targetPoint" />
          </mxGeometry>
        </mxCell>
        <mxCell id="R8wTn0Ck141vZ3SgnGcV-15" value="&lt;font style=&quot;color: light-dark(rgb(0, 0, 0), rgb(0, 0, 0));&quot;&gt;Edit products&lt;/font&gt;" style="rounded=1;whiteSpace=wrap;html=1;fontSize=12;glass=0;strokeWidth=1;shadow=0;strokeColor=light-dark(#000000,#000000);fillColor=light-dark(#F59E0B,#F59E0B);" vertex="1" parent="1">
          <mxGeometry x="130" y="690" width="95" height="40" as="geometry" />
        </mxCell>
        <mxCell id="R8wTn0Ck141vZ3SgnGcV-16" value="" style="html=1;points=[[0,0,0,0,5],[0,1,0,0,-5],[1,0,0,0,5],[1,1,0,0,-5]];perimeter=orthogonalPerimeter;outlineConnect=0;targetShapes=umlLifeline;portConstraint=eastwest;newEdgeStyle={&quot;curved&quot;:0,&quot;rounded&quot;:0};rotation=-90;strokeColor=light-dark(#000000,#000000);fillColor=light-dark(#F59E0B,#F59E0B);" vertex="1" parent="1">
          <mxGeometry x="402.5" y="605.5" width="10" height="410" as="geometry" />
        </mxCell>
        <mxCell id="R8wTn0Ck141vZ3SgnGcV-17" value="" style="endArrow=open;endFill=1;endSize=12;html=1;rounded=0;exitX=0.5;exitY=1;exitDx=0;exitDy=0;strokeColor=light-dark(#000000,#000000);" edge="1" parent="1" source="R8wTn0Ck141vZ3SgnGcV-4" target="R8wTn0Ck141vZ3SgnGcV-11">
          <mxGeometry width="160" relative="1" as="geometry">
            <mxPoint x="360" y="493" as="sourcePoint" />
            <mxPoint x="520" y="493" as="targetPoint" />
          </mxGeometry>
        </mxCell>
        <mxCell id="R8wTn0Ck141vZ3SgnGcV-18" value="&lt;font style=&quot;color: light-dark(rgb(0, 0, 0), rgb(0, 0, 0));&quot;&gt;Manage Custom Orders&lt;/font&gt;" style="rounded=1;whiteSpace=wrap;html=1;fontSize=12;glass=0;strokeWidth=1;shadow=0;fillColor=light-dark(#F59E0B,#F59E0B);strokeColor=light-dark(#000000,#000000);" vertex="1" parent="1">
          <mxGeometry x="520" y="620" width="120" height="40" as="geometry" />
        </mxCell>
        <mxCell id="R8wTn0Ck141vZ3SgnGcV-19" value="" style="endArrow=open;endFill=1;endSize=12;html=1;rounded=0;strokeColor=light-dark(#000000,#000000);entryX=0.5;entryY=0;entryDx=0;entryDy=0;exitX=-0.059;exitY=0.622;exitDx=0;exitDy=0;exitPerimeter=0;" edge="1" parent="1" target="R8wTn0Ck141vZ3SgnGcV-18">
          <mxGeometry width="160" relative="1" as="geometry">
            <mxPoint x="520.0000000000002" y="503.59000000000015" as="sourcePoint" />
            <mxPoint x="659.98" y="623" as="targetPoint" />
          </mxGeometry>
        </mxCell>
        <mxCell id="R8wTn0Ck141vZ3SgnGcV-20" value="" style="endArrow=open;endFill=1;endSize=12;html=1;rounded=0;strokeColor=light-dark(#000000,#000000);exitX=0.534;exitY=1.019;exitDx=0;exitDy=0;exitPerimeter=0;entryX=0.5;entryY=0;entryDx=0;entryDy=0;" edge="1" parent="1" source="R8wTn0Ck141vZ3SgnGcV-18" target="R8wTn0Ck141vZ3SgnGcV-30">
          <mxGeometry width="160" relative="1" as="geometry">
            <mxPoint x="554.98" y="655" as="sourcePoint" />
            <mxPoint x="568.7500000000002" y="804.8899999999999" as="targetPoint" />
          </mxGeometry>
        </mxCell>
        <mxCell id="R8wTn0Ck141vZ3SgnGcV-21" value="&lt;font style=&quot;color: light-dark(rgb(0, 0, 0), rgb(0, 0, 0));&quot;&gt;Yes&lt;/font&gt;" style="text;html=1;align=center;verticalAlign=middle;resizable=0;points=[];autosize=1;strokeColor=none;fillColor=none;" vertex="1" parent="1">
          <mxGeometry x="365" y="451" width="40" height="30" as="geometry" />
        </mxCell>
        <mxCell id="R8wTn0Ck141vZ3SgnGcV-22" value="" style="endArrow=none;html=1;rounded=0;strokeColor=light-dark(#000000,#000000);entryX=0.5;entryY=1;entryDx=0;entryDy=0;exitX=0.5;exitY=0;exitDx=0;exitDy=0;" edge="1" parent="1">
          <mxGeometry width="50" height="50" relative="1" as="geometry">
            <mxPoint x="409.63" y="933" as="sourcePoint" />
            <mxPoint x="409.63" y="903" as="targetPoint" />
          </mxGeometry>
        </mxCell>
        <mxCell id="R8wTn0Ck141vZ3SgnGcV-23" value="" style="endArrow=open;endFill=1;endSize=12;html=1;rounded=0;strokeColor=light-dark(#000000,#000000);entryX=1.077;entryY=0.137;entryDx=0;entryDy=0;entryPerimeter=0;exitX=0.493;exitY=0.997;exitDx=0;exitDy=0;exitPerimeter=0;" edge="1" parent="1" source="R8wTn0Ck141vZ3SgnGcV-15">
          <mxGeometry width="160" relative="1" as="geometry">
            <mxPoint x="160" y="740" as="sourcePoint" />
            <mxPoint x="248.66999999999985" y="804.7299999999998" as="targetPoint" />
          </mxGeometry>
        </mxCell>
        <mxCell id="R8wTn0Ck141vZ3SgnGcV-24" value="" style="endArrow=open;endFill=1;endSize=12;html=1;rounded=0;strokeColor=light-dark(#000000,#000000);" edge="1" parent="1" source="R8wTn0Ck141vZ3SgnGcV-16">
          <mxGeometry width="160" relative="1" as="geometry">
            <mxPoint x="409.89" y="823" as="sourcePoint" />
            <mxPoint x="409.89" y="863" as="targetPoint" />
          </mxGeometry>
        </mxCell>
        <mxCell id="R8wTn0Ck141vZ3SgnGcV-25" value="&lt;font style=&quot;color: light-dark(rgb(0, 0, 0), rgb(0, 0, 0));&quot;&gt;Manage customers&lt;/font&gt;" style="rounded=1;whiteSpace=wrap;html=1;fontSize=12;glass=0;strokeWidth=1;shadow=0;fillColor=light-dark(#F59E0B,#F59E0B);strokeColor=light-dark(#000000,#000000);" vertex="1" parent="1">
          <mxGeometry x="350" y="597.34" width="120" height="40" as="geometry" />
        </mxCell>
        <mxCell id="R8wTn0Ck141vZ3SgnGcV-26" value="" style="endArrow=open;endFill=1;endSize=12;html=1;rounded=0;strokeColor=light-dark(#000000,#000000);entryX=0.5;entryY=0;entryDx=0;entryDy=0;" edge="1" parent="1" target="R8wTn0Ck141vZ3SgnGcV-25">
          <mxGeometry width="160" relative="1" as="geometry">
            <mxPoint x="410" y="503" as="sourcePoint" />
            <mxPoint x="470" y="620.34" as="targetPoint" />
          </mxGeometry>
        </mxCell>
        <mxCell id="R8wTn0Ck141vZ3SgnGcV-27" value="" style="endArrow=open;endFill=1;endSize=12;html=1;rounded=0;strokeColor=light-dark(#000000,#000000);exitX=0.5;exitY=1;exitDx=0;exitDy=0;" edge="1" parent="1" source="R8wTn0Ck141vZ3SgnGcV-25" target="R8wTn0Ck141vZ3SgnGcV-16">
          <mxGeometry width="160" relative="1" as="geometry">
            <mxPoint x="380" y="642.34" as="sourcePoint" />
            <mxPoint x="410" y="710" as="targetPoint" />
          </mxGeometry>
        </mxCell>
        <mxCell id="R8wTn0Ck141vZ3SgnGcV-28" value="&lt;font style=&quot;color: light-dark(rgb(0, 0, 0), rgb(0, 0, 0));&quot;&gt;Add/remove products&lt;/font&gt;" style="rounded=1;whiteSpace=wrap;html=1;fontSize=12;glass=0;strokeWidth=1;shadow=0;strokeColor=light-dark(#000000,#000000);fillColor=light-dark(#F59E0B,#F59E0B);" vertex="1" parent="1">
          <mxGeometry x="245" y="690" width="95" height="40" as="geometry" />
        </mxCell>
        <mxCell id="R8wTn0Ck141vZ3SgnGcV-29" value="" style="endArrow=open;endFill=1;endSize=12;html=1;rounded=0;strokeColor=light-dark(#000000,#000000);exitX=0.75;exitY=1;exitDx=0;exitDy=0;entryX=0.5;entryY=0;entryDx=0;entryDy=0;" edge="1" parent="1" source="R8wTn0Ck141vZ3SgnGcV-12" target="R8wTn0Ck141vZ3SgnGcV-28">
          <mxGeometry width="160" relative="1" as="geometry">
            <mxPoint x="295" y="640" as="sourcePoint" />
            <mxPoint x="345" y="690" as="targetPoint" />
          </mxGeometry>
        </mxCell>
        <mxCell id="R8wTn0Ck141vZ3SgnGcV-30" value="&lt;font style=&quot;color: light-dark(rgb(0, 0, 0), rgb(0, 0, 0));&quot;&gt;Accept/Reject&lt;/font&gt;" style="rounded=1;whiteSpace=wrap;html=1;fontSize=12;glass=0;strokeWidth=1;shadow=0;fillColor=light-dark(#F59E0B,#F59E0B);strokeColor=light-dark(#000000,#000000);" vertex="1" parent="1">
          <mxGeometry x="520" y="720" width="120" height="40" as="geometry" />
        </mxCell>
        <mxCell id="R8wTn0Ck141vZ3SgnGcV-31" value="" style="endArrow=open;endFill=1;endSize=12;html=1;rounded=0;strokeColor=light-dark(#000000,#000000);exitX=0.468;exitY=1.005;exitDx=0;exitDy=0;exitPerimeter=0;entryX=0.911;entryY=0.806;entryDx=0;entryDy=0;entryPerimeter=0;" edge="1" parent="1" source="R8wTn0Ck141vZ3SgnGcV-30" target="R8wTn0Ck141vZ3SgnGcV-16">
          <mxGeometry width="160" relative="1" as="geometry">
            <mxPoint x="574" y="750" as="sourcePoint" />
            <mxPoint x="540" y="800" as="targetPoint" />
          </mxGeometry>
        </mxCell>
      </root>
    </mxGraphModel>
  </diagram>
</mxfile>
